<!DOCTYPE svg PUBLIC "-//W3C//DTD SVG 1.1//EN" "http://www.w3.org/Graphics/SVG/1.1/DTD/svg11.dtd">
<!-- Uploaded to: SVG Repo, www.svgrepo.com, Transformed by: SVG Repo Mixer Tools -->
<svg fill="#ffffff" version="1.1" id="Layer_1" xmlns="http://www.w3.org/2000/svg" xmlns:xlink="http://www.w3.org/1999/xlink" viewBox="0 0 496 496" xml:space="preserve" width="800px" height="800px">
<g id="SVGRepo_bgCarrier" stroke-width="0"/>
<g id="SVGRepo_tracerCarrier" stroke-linecap="round" stroke-linejoin="round"/>
<g id="SVGRepo_iconCarrier"> <g> <g> <g> <path d="M400,232V40c0-22.056-17.944-40-40-40H40C17.944,0,0,17.944,0,40v192c0,22.056,17.944,40,40,40h320 C382.056,272,400,254.056,400,232z M16,40c0-13.232,10.768-24,24-24h320c13.232,0,24,10.768,24,24v8H16V40z M16,64h368v40H16V64z M16,232V120h368v112c0,13.232-10.768,24-24,24H40C26.768,256,16,245.232,16,232z"/> <path d="M320,144c-6.912,0-13.616,1.52-20,4.52c-6.384-3-13.088-4.52-20-4.52c-26.472,0-48,21.528-48,48s21.528,48,48,48 c6.912,0,13.616-1.52,20-4.52c6.384,3,13.088,4.52,20,4.52c26.472,0,48-21.528,48-48S346.472,144,320,144z M320,224 c-5.512,0-10.888-1.504-15.976-4.464L300,217.192l-4.024,2.344C290.888,222.504,285.512,224,280,224c-17.648,0-32-14.352-32-32 s14.352-32,32-32c5.512,0,10.888,1.504,15.976,4.464l4.024,2.344l4.024-2.344C309.112,161.504,314.488,160,320,160 c17.648,0,32,14.352,32,32S337.648,224,320,224z"/> <path d="M392,288c-32.16,0-60.952,14.68-80.04,37.688C292.288,301.952,263.176,288,232,288c-57.344,0-104,46.656-104,104 s46.656,104,104,104c31.176,0,60.288-13.952,79.96-37.688C331.048,481.32,359.84,496,392,496c57.344,0,104-46.656,104-104 S449.344,288,392,288z M302.376,444.504C285.776,466.744,259.888,480,232,480c-48.52,0-88-39.48-88-88c0-48.52,39.48-88,88-88 c27.888,0,53.776,13.256,70.376,35.496C293.304,354.928,288,372.84,288,392C288,411.16,293.304,429.072,302.376,444.504z M392,480c-48.52,0-88-39.48-88-88c0-48.52,39.48-88,88-88c48.52,0,88,39.48,88,88C480,440.52,440.52,480,392,480z"/> <path d="M376,352h32c8.824,0,16,7.176,16,16h16c0-17.648-14.352-32-32-32h-8v-16h-16v16h-8c-17.648,0-32,14.352-32,32 s14.352,32,32,32h32c8.824,0,16,7.176,16,16c0,8.824-7.176,16-16,16h-32c-8.824,0-16-7.176-16-16h-16c0,17.648,14.352,32,32,32h8 v16h16v-16h8c17.648,0,32-14.352,32-32s-14.352-32-32-32h-32c-8.824,0-16-7.176-16-16C360,359.176,367.176,352,376,352z"/> <polygon points="277.656,349.656 266.344,338.344 232,372.688 197.656,338.344 186.344,349.656 224,387.312 224,392 192,392 192,408 224,408 224,424 192,424 192,440 224,440 224,456 240,456 240,440 272,440 272,424 240,424 240,408 272,408 272,392 240,392 240,387.312 "/> <rect x="416" y="168" width="16" height="16"/> <rect x="448" y="168" width="16" height="16"/> <rect x="448" y="200" width="16" height="16"/> <rect x="448" y="232" width="16" height="16"/> <rect x="448" y="264" width="16" height="16"/> <rect x="48" y="288" width="16" height="16"/> <rect x="48" y="320" width="16" height="16"/> <rect x="48" y="352" width="16" height="16"/> <rect x="48" y="384" width="16" height="16"/> <rect x="48" y="416" width="16" height="16"/> <rect x="48" y="448" width="16" height="16"/> <rect x="80" y="448" width="16" height="16"/> <rect x="112" y="448" width="16" height="16"/> </g> </g> </g> </g>
</svg>